<svg xmlns="http://www.w3.org/2000/svg" width="375" viewBox="0 0 375 375" height="375" version="1.0"><defs><clipPath id="a"><path d="M 0.179688 25.703125 L 374.796875 25.703125 L 374.796875 218 L 0.179688 218 Z M 0.179688 25.703125"/></clipPath><clipPath id="b"><path d="M 1 208 L 374 208 L 374 321.175781 L 1 321.175781 Z M 1 208"/></clipPath><clipPath id="c"><path d="M 0.179688 199 L 374.796875 199 L 374.796875 226.644531 L 0.179688 226.644531 Z M 0.179688 199"/></clipPath></defs><path fill="#FFF" d="M-37.5 -37.5H412.5V412.5H-37.5z"/><path fill="#FFF" d="M-37.5 -37.5H412.5V412.5H-37.5z"/><path fill="#FFF" d="M-37.5 -37.5H412.5V412.5H-37.5z"/><g clip-path="url(#a)"><path fill="#1377BF" d="M 374.800781 210.5625 C 374.800781 212.742188 374.757812 214.863281 374.621094 216.953125 C 374.636719 217 374.621094 217.046875 374.621094 217.089844 C 374.621094 217.132812 374.621094 217.195312 374.605469 217.242188 L 374.605469 217.410156 L 374.589844 217.410156 C 372.859375 217.074219 371.148438 216.757812 369.433594 216.457031 C 368.128906 216.214844 366.824219 215.972656 365.519531 215.742188 C 361.335938 214.984375 357.179688 214.273438 353.039062 213.578125 C 350.582031 213.164062 348.15625 212.773438 345.742188 212.375 C 345.351562 212.304688 344.953125 212.242188 344.558594 212.183594 C 344.390625 212.164062 344.210938 212.136719 344.042969 212.105469 C 343.074219 211.957031 342.117188 211.800781 341.160156 211.652344 C 338.960938 211.316406 336.78125 210.984375 334.597656 210.652344 C 334.367188 210.605469 334.140625 210.574219 333.914062 210.546875 C 334.304688 207.164062 334.789062 203.484375 335.003906 199.511719 C 335.066406 198.304688 335.09375 197.046875 335.09375 195.773438 C 335.09375 186.058594 332.925781 177.753906 333.429688 171.042969 C 334.667969 154.421875 348.460938 146.554688 338.207031 145.433594 C 302.5 141.527344 302.242188 148.449219 266.386719 148.449219 C 230.535156 148.449219 230.292969 141.707031 194.589844 145.433594 C 184.199219 146.511719 199.503906 153.84375 201.324219 170.710938 C 201.628906 173.46875 201.445312 176.511719 201.125 179.832031 C 200.671875 184.574219 199.914062 189.890625 199.820312 195.742188 C 199.808594 196.96875 199.808594 198.167969 199.851562 199.347656 C 198.65625 199.316406 197.457031 199.300781 196.257812 199.285156 C 189.75 199.179688 183.367188 199.148438 177.132812 199.195312 C 177.175781 198.089844 177.210938 196.9375 177.210938 195.773438 C 177.210938 190.269531 176.511719 185.242188 175.996094 180.679688 C 175.617188 177.179688 175.328125 173.964844 175.539062 171.042969 C 176.785156 154.421875 190.570312 146.554688 180.316406 145.433594 C 144.613281 141.527344 144.359375 148.449219 108.503906 148.449219 C 72.648438 148.449219 72.40625 141.707031 36.6875 145.433594 C 26.3125 146.511719 41.617188 153.84375 43.4375 170.710938 C 44.164062 177.40625 42.085938 185.804688 41.9375 195.742188 C 41.875 198.695312 42.027344 201.53125 42.207031 204.242188 C 42.34375 206.105469 42.511719 207.910156 42.664062 209.636719 C 41.054688 209.894531 39.496094 210.136719 37.964844 210.390625 C 36.703125 210.605469 35.476562 210.804688 34.261719 211.015625 C 32.242188 211.363281 30.316406 211.695312 28.464844 212.027344 C 26.996094 212.289062 25.570312 212.546875 24.207031 212.800781 C 23.523438 212.921875 22.855469 213.058594 22.203125 213.179688 C 16.300781 214.289062 11.539062 215.269531 7.976562 216.015625 C 7.566406 216.105469 7.191406 216.179688 6.824219 216.257812 C 6.386719 216.363281 5.960938 216.441406 5.566406 216.527344 C 4.972656 216.648438 4.429688 216.769531 3.925781 216.878906 C 3.488281 216.96875 3.078125 217.0625 2.714844 217.132812 C 2.5625 217.167969 2.410156 217.195312 2.257812 217.226562 C 2.109375 217.257812 1.988281 217.289062 1.847656 217.304688 C 1.441406 217.394531 1.105469 217.453125 0.847656 217.5 C 0.636719 217.53125 0.472656 217.546875 0.363281 217.558594 C 0.238281 215.269531 0.179688 212.9375 0.179688 210.5625 C 0.179688 158.316406 29.894531 104.3125 74.347656 68.265625 L 74.347656 68.25 L 75.332031 67.460938 C 75.578125 67.261719 75.835938 67.066406 76.089844 66.871094 L 76.089844 66.855469 C 90.195312 55.671875 105.726562 46.277344 122.246094 39.304688 L 123.988281 38.578125 C 138.808594 32.503906 154.378906 28.367188 170.382812 26.640625 L 172.128906 26.457031 C 177.210938 25.957031 182.335938 25.703125 187.488281 25.703125 C 216.292969 25.703125 244.125 33.671875 269.121094 47.167969 C 269.40625 47.339844 269.695312 47.488281 269.984375 47.640625 L 270.847656 48.113281 L 270.847656 48.128906 C 286.242188 56.625 300.527344 67.246094 313.289062 79.371094 L 315.03125 81.050781 C 351.386719 116.417969 374.800781 164.179688 374.800781 210.5625"/></g><path fill="#FFF" d="M 175.996094 180.679688 C 176.511719 185.242188 177.210938 190.269531 177.210938 195.773438 C 177.210938 196.9375 177.175781 198.089844 177.132812 199.195312 L 176.917969 199.195312 C 173.375 199.210938 169.882812 199.257812 166.425781 199.316406 C 163.300781 199.347656 160.207031 199.421875 157.140625 199.5 C 154.898438 199.558594 152.683594 199.621094 150.484375 199.695312 C 148.636719 199.753906 146.8125 199.816406 144.992188 199.875 C 143.753906 199.9375 142.507812 199.984375 141.277344 200.03125 C 138.246094 200.152344 135.257812 200.300781 132.316406 200.453125 C 130.34375 200.542969 128.402344 200.652344 126.472656 200.773438 C 125.003906 200.847656 123.535156 200.9375 122.09375 201.027344 C 120.652344 201.121094 119.210938 201.226562 117.785156 201.316406 C 116.085938 201.425781 114.402344 201.546875 112.71875 201.667969 C 111.234375 201.773438 109.761719 201.894531 108.289062 202 C 108.210938 202.015625 108.140625 202.015625 108.046875 202.015625 C 105.316406 202.222656 102.632812 202.457031 99.992188 202.683594 C 99.890625 202.695312 99.78125 202.695312 99.675781 202.710938 C 98.265625 202.832031 96.867188 202.953125 95.488281 203.089844 C 93.792969 203.238281 92.125 203.394531 90.484375 203.558594 C 88.074219 203.785156 85.707031 204.027344 83.386719 204.285156 C 82.613281 204.363281 81.839844 204.441406 81.082031 204.527344 C 72.484375 205.46875 64.503906 206.46875 57.195312 207.46875 C 55.585938 207.695312 54.007812 207.925781 52.460938 208.152344 C 49.03125 208.648438 45.773438 209.132812 42.664062 209.636719 C 42.511719 207.910156 42.34375 206.105469 42.207031 204.242188 C 42.027344 201.53125 41.875 198.695312 41.9375 195.742188 C 42.085938 185.804688 44.164062 177.40625 43.4375 170.710938 C 41.617188 153.84375 26.3125 146.511719 36.6875 145.433594 C 72.40625 141.707031 72.648438 148.449219 108.503906 148.449219 C 144.359375 148.449219 144.613281 141.527344 180.316406 145.433594 C 190.570312 146.554688 176.785156 154.421875 175.539062 171.042969 C 175.328125 173.964844 175.617188 177.179688 175.996094 180.679688"/><path fill="#FFF" d="M 335.09375 195.773438 C 335.09375 197.046875 335.066406 198.304688 335.003906 199.511719 C 334.789062 203.484375 334.304688 207.164062 333.914062 210.546875 C 331.53125 210.199219 329.167969 209.847656 326.8125 209.515625 C 325.085938 209.269531 323.359375 209.027344 321.628906 208.800781 C 319.488281 208.5 317.351562 208.210938 315.210938 207.9375 C 314.589844 207.847656 313.964844 207.773438 313.347656 207.695312 C 313.132812 207.667969 312.9375 207.632812 312.726562 207.621094 C 311.738281 207.5 310.753906 207.363281 309.765625 207.242188 C 308.78125 207.105469 307.78125 206.984375 306.8125 206.878906 C 303.835938 206.515625 300.890625 206.167969 297.953125 205.832031 C 296.617188 205.683594 295.3125 205.527344 293.992188 205.394531 C 292.671875 205.242188 291.367188 205.101562 290.050781 204.953125 C 289.410156 204.894531 288.792969 204.816406 288.152344 204.753906 C 288.003906 204.742188 287.851562 204.726562 287.699219 204.710938 L 287.683594 204.710938 C 285.289062 204.46875 282.921875 204.226562 280.554688 204 C 277.6875 203.710938 274.835938 203.453125 272.003906 203.195312 C 271.894531 203.195312 271.789062 203.179688 271.683594 203.167969 C 268.953125 202.925781 266.253906 202.695312 263.554688 202.484375 C 260.765625 202.257812 257.972656 202.042969 255.210938 201.847656 C 252.769531 201.667969 250.34375 201.496094 247.945312 201.347656 C 247.613281 201.332031 247.292969 201.304688 246.972656 201.285156 C 245.199219 201.183594 243.425781 201.0625 241.667969 200.953125 C 239.941406 200.847656 238.210938 200.757812 236.511719 200.664062 C 236.375 200.664062 236.238281 200.652344 236.117188 200.652344 C 234.339844 200.558594 232.582031 200.46875 230.824219 200.378906 C 225.515625 200.121094 220.269531 199.910156 215.109375 199.742188 C 213.820312 199.679688 212.53125 199.648438 211.257812 199.621094 C 208.695312 199.527344 206.148438 199.46875 203.628906 199.421875 C 202.355469 199.390625 201.097656 199.378906 199.851562 199.347656 C 199.808594 198.167969 199.808594 196.96875 199.820312 195.742188 C 199.914062 189.890625 200.671875 184.574219 201.125 179.832031 C 201.445312 176.511719 201.628906 173.46875 201.324219 170.710938 C 199.503906 153.84375 184.199219 146.511719 194.589844 145.433594 C 230.292969 141.707031 230.535156 148.449219 266.386719 148.449219 C 302.242188 148.449219 302.5 141.527344 338.207031 145.433594 C 348.460938 146.554688 334.667969 154.421875 333.429688 171.042969 C 332.925781 177.753906 335.09375 186.058594 335.09375 195.773438"/><g clip-path="url(#b)"><path fill="#1377BF" d="M 373.726562 226.53125 C 373.695312 226.746094 373.664062 226.972656 373.621094 227.179688 C 373.621094 227.242188 373.621094 227.285156 373.605469 227.347656 C 373.605469 227.394531 373.589844 227.425781 373.570312 227.46875 C 362.226562 303.035156 273.183594 321.175781 180.285156 321.175781 C 92.105469 321.175781 18.699219 304.824219 3.214844 238.515625 C 3.199219 238.5 3.199219 238.484375 3.199219 238.457031 C 2.351562 234.820312 1.136719 226.710938 1.105469 226.53125 C 1.105469 226.546875 1.121094 226.546875 1.152344 226.546875 C 2.074219 226.683594 16.785156 222.863281 43.027344 218.683594 C 73.285156 213.863281 118.84375 208.578125 176.300781 208.289062 C 184.125 208.242188 192.179688 208.289062 200.441406 208.46875 C 240.152344 209.226562 284.757812 212.453125 333.289062 219.699219 C 346.46875 221.667969 359.941406 223.9375 373.679688 226.515625 C 373.695312 226.53125 373.710938 226.53125 373.726562 226.53125"/></g><path fill="#FFF" d="M 242.796875 75.847656 C 242.796875 89.605469 231.636719 100.753906 217.863281 100.753906 C 214.554688 100.753906 211.394531 100.109375 208.507812 98.945312 C 217.644531 95.246094 224.085938 86.300781 224.085938 75.847656 C 224.085938 65.394531 217.644531 56.453125 208.507812 52.753906 C 211.394531 51.585938 214.554688 50.941406 217.863281 50.941406 C 231.636719 50.941406 242.796875 62.089844 242.796875 75.847656"/><path fill="#FFF" d="M 75.027344 109.457031 C 75.242188 109.019531 75.601562 109.019531 75.824219 109.457031 L 77.765625 113.398438 C 77.984375 113.839844 78.566406 114.261719 79.058594 114.332031 L 83.410156 114.96875 C 83.898438 115.039062 84.007812 115.378906 83.65625 115.722656 L 80.503906 118.789062 C 80.152344 119.132812 79.929688 119.816406 80.011719 120.304688 L 80.757812 124.632812 C 80.839844 125.121094 80.546875 125.328125 80.113281 125.097656 L 76.21875 123.054688 C 75.78125 122.824219 75.0625 122.824219 74.625 123.054688 L 70.734375 125.097656 C 70.296875 125.328125 70.007812 125.121094 70.09375 124.632812 L 70.835938 120.304688 C 70.917969 119.816406 70.695312 119.132812 70.34375 118.789062 L 67.191406 115.722656 C 66.839844 115.378906 66.949219 115.039062 67.4375 114.96875 L 71.789062 114.332031 C 72.28125 114.261719 72.859375 113.839844 73.082031 113.398438 L 75.027344 109.457031"/><path fill="#FFF" d="M 223.269531 125.84375 C 223.371094 125.644531 223.53125 125.644531 223.632812 125.84375 L 224.503906 127.609375 C 224.601562 127.808594 224.859375 128 225.082031 128.027344 L 227.035156 128.316406 C 227.253906 128.34375 227.300781 128.5 227.144531 128.652344 L 225.730469 130.027344 C 225.574219 130.183594 225.472656 130.492188 225.511719 130.707031 L 225.84375 132.652344 C 225.882812 132.871094 225.75 132.960938 225.554688 132.859375 L 223.8125 131.941406 C 223.613281 131.839844 223.289062 131.839844 223.09375 131.941406 L 221.347656 132.859375 C 221.152344 132.960938 221.019531 132.871094 221.0625 132.652344 L 221.390625 130.707031 C 221.433594 130.492188 221.332031 130.183594 221.171875 130.027344 L 219.757812 128.652344 C 219.601562 128.5 219.652344 128.34375 219.871094 128.316406 L 221.820312 128.027344 C 222.042969 128 222.300781 127.808594 222.402344 127.609375 L 223.269531 125.84375"/><path fill="#FFF" d="M 277.734375 104.347656 C 277.832031 104.152344 277.988281 104.152344 278.089844 104.347656 L 278.964844 106.117188 C 279.0625 106.316406 279.324219 106.503906 279.539062 106.539062 L 281.492188 106.820312 C 281.714844 106.855469 281.765625 107.003906 281.601562 107.160156 L 280.191406 108.535156 C 280.03125 108.691406 279.933594 108.996094 279.96875 109.210938 L 280.304688 111.15625 C 280.339844 111.375 280.210938 111.46875 280.011719 111.367188 L 278.269531 110.449219 C 278.070312 110.347656 277.75 110.347656 277.554688 110.449219 L 275.808594 111.367188 C 275.609375 111.46875 275.484375 111.375 275.519531 111.15625 L 275.851562 109.210938 C 275.890625 108.996094 275.789062 108.691406 275.628906 108.535156 L 274.21875 107.160156 C 274.0625 107.003906 274.109375 106.855469 274.328125 106.820312 L 276.28125 106.539062 C 276.5 106.503906 276.761719 106.316406 276.859375 106.117188 L 277.734375 104.347656"/><path fill="#FFF" d="M 131.304688 116.753906 C 131.402344 116.550781 131.5625 116.550781 131.664062 116.753906 L 132.535156 118.519531 C 132.636719 118.71875 132.890625 118.90625 133.113281 118.941406 L 135.066406 119.222656 C 135.285156 119.253906 135.332031 119.40625 135.175781 119.5625 L 133.761719 120.9375 C 133.605469 121.09375 133.503906 121.398438 133.542969 121.617188 L 133.875 123.558594 C 133.914062 123.777344 133.785156 123.875 133.585938 123.765625 L 131.84375 122.855469 C 131.644531 122.746094 131.320312 122.746094 131.125 122.855469 L 129.382812 123.765625 C 129.183594 123.875 129.050781 123.777344 129.09375 123.558594 L 129.425781 121.617188 C 129.464844 121.398438 129.363281 121.09375 129.203125 120.9375 L 127.792969 119.5625 C 127.632812 119.40625 127.683594 119.253906 127.902344 119.222656 L 129.851562 118.941406 C 130.074219 118.90625 130.332031 118.71875 130.433594 118.519531 L 131.304688 116.753906"/><path fill="#FFF" d="M 76.089844 66.855469 L 76.089844 113.601562 L 74.347656 113.601562 L 74.347656 68.25 L 75.332031 67.460938 L 76.089844 66.855469"/><path fill="#FFF" d="M 122.929688 69.8125 C 123.144531 69.367188 123.503906 69.367188 123.722656 69.8125 L 125.671875 73.75 C 125.886719 74.195312 126.46875 74.617188 126.960938 74.6875 L 131.308594 75.316406 C 131.796875 75.386719 131.90625 75.726562 131.554688 76.074219 L 128.410156 79.140625 C 128.054688 79.484375 127.832031 80.167969 127.914062 80.65625 L 128.660156 84.984375 C 128.742188 85.46875 128.453125 85.683594 128.011719 85.453125 L 124.121094 83.410156 C 123.683594 83.179688 122.96875 83.179688 122.527344 83.410156 L 118.636719 85.453125 C 118.199219 85.683594 117.910156 85.46875 117.992188 84.984375 L 118.734375 80.65625 C 118.820312 80.167969 118.597656 79.484375 118.242188 79.140625 L 115.097656 76.074219 C 114.742188 75.726562 114.851562 75.386719 115.34375 75.316406 L 119.691406 74.6875 C 120.179688 74.617188 120.761719 74.195312 120.980469 73.75 L 122.929688 69.8125"/><path fill="#FFF" d="M 123.988281 38.578125 L 123.988281 73.960938 L 122.246094 73.960938 L 122.246094 39.304688 L 123.988281 38.578125"/><path fill="#FFF" d="M 171.066406 83.070312 C 171.285156 82.628906 171.644531 82.628906 171.863281 83.070312 L 173.808594 87.007812 C 174.027344 87.449219 174.605469 87.871094 175.097656 87.941406 L 179.449219 88.578125 C 179.9375 88.648438 180.046875 88.988281 179.695312 89.332031 L 176.546875 92.398438 C 176.191406 92.742188 175.96875 93.425781 176.054688 93.914062 L 176.796875 98.242188 C 176.882812 98.730469 176.589844 98.9375 176.152344 98.710938 L 172.261719 96.664062 C 171.824219 96.433594 171.105469 96.433594 170.667969 96.664062 L 166.777344 98.710938 C 166.339844 98.9375 166.046875 98.730469 166.132812 98.242188 L 166.875 93.914062 C 166.960938 93.425781 166.738281 92.742188 166.382812 92.398438 L 163.234375 89.332031 C 162.878906 88.988281 162.992188 88.648438 163.480469 88.578125 L 167.828125 87.941406 C 168.320312 87.871094 168.902344 87.449219 169.121094 87.007812 L 171.066406 83.070312"/><path fill="#FFF" d="M 172.128906 26.457031 L 172.128906 87.21875 L 170.382812 87.21875 L 170.382812 26.640625 L 172.128906 26.457031"/><path fill="#FFF" d="M 269.792969 67.539062 C 270.011719 67.09375 270.371094 67.09375 270.589844 67.539062 L 272.535156 71.476562 C 272.753906 71.921875 273.335938 72.34375 273.824219 72.414062 L 278.171875 73.042969 C 278.664062 73.117188 278.777344 73.457031 278.417969 73.800781 L 275.273438 76.867188 C 274.917969 77.214844 274.695312 77.894531 274.78125 78.378906 L 275.523438 82.710938 C 275.605469 83.195312 275.316406 83.410156 274.878906 83.179688 L 270.988281 81.136719 C 270.546875 80.902344 269.832031 80.902344 269.394531 81.136719 L 265.503906 83.179688 C 265.0625 83.410156 264.773438 83.195312 264.859375 82.710938 L 265.601562 78.378906 C 265.683594 77.894531 265.464844 77.214844 265.105469 76.867188 L 261.960938 73.800781 C 261.609375 73.457031 261.71875 73.117188 262.207031 73.042969 L 266.558594 72.414062 C 267.050781 72.34375 267.628906 71.921875 267.847656 71.476562 L 269.792969 67.539062"/><path fill="#FFF" d="M 270.847656 48.113281 L 270.847656 71.691406 L 269.121094 71.691406 L 269.121094 47.15625 L 269.984375 47.640625 L 270.847656 48.113281"/><path fill="#FFF" d="M 313.960938 111.675781 C 314.183594 111.230469 314.542969 111.230469 314.757812 111.675781 L 316.707031 115.613281 C 316.925781 116.054688 317.503906 116.476562 317.992188 116.546875 L 322.34375 117.179688 C 322.835938 117.25 322.945312 117.589844 322.589844 117.933594 L 319.445312 121 C 319.089844 121.347656 318.867188 122.027344 318.953125 122.515625 L 319.695312 126.84375 C 319.777344 127.332031 319.488281 127.546875 319.050781 127.3125 L 315.160156 125.265625 C 314.71875 125.039062 314.003906 125.039062 313.566406 125.265625 L 309.675781 127.3125 C 309.234375 127.546875 308.945312 127.332031 309.027344 126.84375 L 309.773438 122.515625 C 309.855469 122.027344 309.632812 121.347656 309.277344 121 L 306.132812 117.933594 C 305.777344 117.589844 305.890625 117.25 306.378906 117.179688 L 310.726562 116.546875 C 311.21875 116.476562 311.800781 116.054688 312.015625 115.613281 L 313.960938 111.675781"/><path fill="#FFF" d="M 315.03125 81.050781 L 315.03125 115.8125 L 313.289062 115.8125 L 313.289062 79.371094 L 315.03125 81.050781"/><g clip-path="url(#c)"><path fill="#FFF" d="M 374.589844 217.410156 C 374.4375 218.988281 373.90625 224.320312 373.679688 226.515625 C 359.941406 223.9375 346.46875 221.667969 333.289062 219.699219 C 284.757812 212.453125 240.152344 209.226562 200.441406 208.46875 C 192.179688 208.289062 184.125 208.242188 176.300781 208.289062 C 118.84375 208.578125 73.285156 213.863281 43.027344 218.683594 C 16.785156 222.863281 2.074219 226.683594 1.152344 226.546875 C 1.121094 226.546875 1.105469 226.546875 1.105469 226.53125 C 1.136719 226.710938 0.363281 217.558594 0.363281 217.558594 C 0.472656 217.546875 0.636719 217.53125 0.847656 217.5 C 1.105469 217.453125 1.441406 217.394531 1.847656 217.304688 C 1.988281 217.289062 2.109375 217.257812 2.257812 217.226562 C 2.410156 217.195312 2.5625 217.167969 2.714844 217.132812 C 3.078125 217.0625 3.488281 216.96875 3.925781 216.878906 C 4.429688 216.769531 4.972656 216.648438 5.566406 216.527344 C 5.960938 216.441406 6.386719 216.363281 6.824219 216.257812 C 7.191406 216.179688 7.566406 216.105469 7.976562 216.015625 C 11.539062 215.269531 16.300781 214.289062 22.203125 213.179688 C 22.855469 213.058594 23.523438 212.921875 24.207031 212.800781 C 25.570312 212.546875 26.996094 212.289062 28.464844 212.027344 C 30.316406 211.695312 32.242188 211.363281 34.261719 211.015625 C 35.476562 210.804688 36.703125 210.605469 37.964844 210.390625 C 39.496094 210.136719 41.054688 209.894531 42.664062 209.636719 C 45.773438 209.132812 49.03125 208.648438 52.460938 208.152344 C 54.007812 207.925781 55.585938 207.695312 57.195312 207.46875 C 64.503906 206.46875 72.484375 205.46875 81.082031 204.527344 C 81.839844 204.441406 82.613281 204.363281 83.386719 204.285156 C 85.707031 204.027344 88.074219 203.785156 90.484375 203.558594 C 92.125 203.394531 93.792969 203.238281 95.488281 203.089844 C 96.867188 202.953125 98.265625 202.832031 99.675781 202.710938 C 99.78125 202.695312 99.890625 202.695312 99.992188 202.683594 C 102.632812 202.457031 105.316406 202.222656 108.046875 202.015625 C 108.140625 202.015625 108.210938 202.015625 108.289062 202 C 109.761719 201.894531 111.234375 201.773438 112.71875 201.667969 C 114.402344 201.546875 116.085938 201.425781 117.785156 201.316406 C 119.210938 201.226562 120.652344 201.121094 122.09375 201.027344 C 123.535156 200.9375 125.003906 200.847656 126.472656 200.773438 C 128.402344 200.652344 130.34375 200.542969 132.316406 200.453125 C 135.257812 200.300781 138.246094 200.152344 141.277344 200.03125 C 142.507812 199.984375 143.753906 199.9375 144.992188 199.875 C 146.8125 199.816406 148.636719 199.753906 150.484375 199.695312 C 152.683594 199.621094 154.898438 199.558594 157.140625 199.5 C 160.207031 199.421875 163.300781 199.347656 166.425781 199.316406 C 169.882812 199.257812 173.375 199.210938 176.917969 199.195312 L 177.132812 199.195312 C 183.367188 199.148438 189.75 199.179688 196.257812 199.285156 C 197.457031 199.300781 198.65625 199.316406 199.851562 199.347656 C 201.097656 199.378906 202.355469 199.390625 203.628906 199.421875 C 206.148438 199.46875 208.695312 199.527344 211.257812 199.621094 C 212.53125 199.648438 213.820312 199.679688 215.109375 199.742188 C 220.269531 199.910156 225.515625 200.121094 230.824219 200.378906 C 232.582031 200.46875 234.339844 200.558594 236.117188 200.652344 C 236.238281 200.652344 236.375 200.664062 236.511719 200.664062 C 238.210938 200.757812 239.941406 200.847656 241.667969 200.953125 C 243.425781 201.0625 245.199219 201.183594 246.972656 201.285156 C 247.292969 201.304688 247.613281 201.332031 247.945312 201.347656 C 250.34375 201.496094 252.769531 201.667969 255.210938 201.847656 C 257.972656 202.042969 260.765625 202.257812 263.554688 202.484375 C 266.253906 202.695312 268.953125 202.925781 271.683594 203.167969 C 271.789062 203.179688 271.894531 203.195312 272.003906 203.195312 C 274.835938 203.453125 277.6875 203.710938 280.554688 204 C 282.921875 204.226562 285.289062 204.46875 287.683594 204.710938 L 287.699219 204.710938 C 287.851562 204.726562 288.003906 204.742188 288.152344 204.753906 C 288.792969 204.816406 289.410156 204.894531 290.050781 204.953125 C 291.367188 205.101562 292.671875 205.242188 293.992188 205.394531 C 295.3125 205.527344 296.617188 205.683594 297.953125 205.832031 C 300.890625 206.167969 303.835938 206.515625 306.8125 206.878906 C 307.78125 206.984375 308.78125 207.105469 309.765625 207.242188 C 310.753906 207.363281 311.738281 207.5 312.726562 207.621094 C 312.9375 207.632812 313.132812 207.667969 313.347656 207.695312 C 313.964844 207.773438 314.589844 207.847656 315.210938 207.9375 C 317.351562 208.210938 319.488281 208.5 321.628906 208.800781 C 323.359375 209.027344 325.085938 209.269531 326.8125 209.515625 C 329.167969 209.847656 331.53125 210.199219 333.914062 210.546875 C 334.140625 210.574219 334.367188 210.605469 334.597656 210.652344 C 336.78125 210.984375 338.960938 211.316406 341.160156 211.652344 C 342.117188 211.800781 343.074219 211.957031 344.042969 212.105469 C 344.210938 212.136719 344.390625 212.164062 344.558594 212.183594 C 344.953125 212.242188 345.351562 212.304688 345.742188 212.375 C 348.15625 212.773438 350.582031 213.164062 353.039062 213.578125 C 357.179688 214.273438 361.335938 214.984375 365.519531 215.742188 C 366.824219 215.972656 368.128906 216.214844 369.433594 216.457031 C 371.148438 216.757812 372.859375 217.074219 374.589844 217.410156"/></g><path fill="#1377BF" d="M 0.0117188 227.253906 L 374.988281 227.253906 L 374.988281 349.503906 L 0.0117188 349.503906 L 0.0117188 227.253906"/><g fill="#FFF"><g><g><path d="M -2.40625 -14.1875 C -2.9375 -16.132812 -2.5625 -17.941406 -1.28125 -19.609375 C -0.0078125 -21.285156 1.941406 -22.484375 4.578125 -23.203125 C 7.222656 -23.921875 9.554688 -23.863281 11.578125 -23.03125 C 13.609375 -22.207031 14.816406 -21.097656 15.203125 -19.703125 C 15.253906 -19.535156 15.234375 -19.367188 15.140625 -19.203125 C 15.046875 -19.046875 14.925781 -18.945312 14.78125 -18.90625 L 9.015625 -17.34375 C 8.578125 -17.21875 8.128906 -17.265625 7.671875 -17.484375 C 7.222656 -17.710938 6.691406 -17.742188 6.078125 -17.578125 C 5.160156 -17.328125 4.773438 -16.929688 4.921875 -16.390625 C 5.003906 -16.109375 5.296875 -15.929688 5.796875 -15.859375 C 6.296875 -15.785156 7.179688 -15.84375 8.453125 -16.03125 C 11.398438 -16.4375 13.613281 -16.320312 15.09375 -15.6875 C 16.570312 -15.050781 17.578125 -13.75 18.109375 -11.78125 C 18.648438 -9.820312 18.195312 -7.976562 16.75 -6.25 C 15.300781 -4.53125 13.125 -3.273438 10.21875 -2.484375 C 7.320312 -1.691406 4.890625 -1.664062 2.921875 -2.40625 C 0.953125 -3.144531 -0.265625 -4.363281 -0.734375 -6.0625 C -0.773438 -6.238281 -0.75 -6.40625 -0.65625 -6.5625 C -0.570312 -6.726562 -0.441406 -6.832031 -0.265625 -6.875 L 5.203125 -8.375 C 5.597656 -8.476562 6.09375 -8.40625 6.6875 -8.15625 C 7.28125 -7.914062 8.007812 -7.910156 8.875 -8.140625 C 10.3125 -8.535156 10.957031 -9 10.8125 -9.53125 C 10.71875 -9.875 10.382812 -10.066406 9.8125 -10.109375 C 9.238281 -10.148438 8.207031 -10.066406 6.71875 -9.859375 C 1.601562 -9.171875 -1.4375 -10.613281 -2.40625 -14.1875 Z M -2.40625 -14.1875" transform="translate(12.051 310.033)"/></g></g></g><g fill="#FFF"><g><g><path d="M 13.453125 -24.546875 L 18.046875 -25.609375 C 18.265625 -25.660156 18.46875 -25.625 18.65625 -25.5 C 18.84375 -25.382812 18.960938 -25.222656 19.015625 -25.015625 L 23.359375 -6.265625 C 23.410156 -6.046875 23.378906 -5.835938 23.265625 -5.640625 C 23.148438 -5.453125 22.984375 -5.332031 22.765625 -5.28125 L 17.515625 -4.0625 C 17.304688 -4.019531 17.101562 -4.054688 16.90625 -4.171875 C 16.707031 -4.296875 16.582031 -4.46875 16.53125 -4.6875 L 14.6875 -12.625 L 13.515625 -9.03125 C 13.316406 -8.488281 13.007812 -8.171875 12.59375 -8.078125 L 10.5625 -7.609375 C 10.15625 -7.515625 9.742188 -7.664062 9.328125 -8.0625 L 6.671875 -10.75 L 8.515625 -2.8125 C 8.566406 -2.59375 8.535156 -2.390625 8.421875 -2.203125 C 8.304688 -2.015625 8.140625 -1.894531 7.921875 -1.84375 L 2.671875 -0.625 C 2.460938 -0.570312 2.257812 -0.601562 2.0625 -0.71875 C 1.875 -0.84375 1.753906 -1.015625 1.703125 -1.234375 L -2.640625 -19.984375 C -2.691406 -20.191406 -2.65625 -20.390625 -2.53125 -20.578125 C -2.414062 -20.773438 -2.253906 -20.898438 -2.046875 -20.953125 L 2.546875 -22.015625 C 3.078125 -22.140625 3.550781 -21.972656 3.96875 -21.515625 L 9.796875 -15.53125 L 12.390625 -23.484375 C 12.554688 -24.066406 12.910156 -24.421875 13.453125 -24.546875 Z M 13.453125 -24.546875" transform="translate(33.015 304.268)"/></g></g></g><g fill="#FFF"><g><g><path d="M 4.40625 -22.078125 L 10.765625 -23.296875 C 11.472656 -23.429688 11.976562 -23.191406 12.28125 -22.578125 L 22.359375 -5.140625 C 22.390625 -5.085938 22.414062 -5 22.4375 -4.875 C 22.457031 -4.75 22.414062 -4.609375 22.3125 -4.453125 C 22.207031 -4.296875 22.070312 -4.203125 21.90625 -4.171875 L 16.484375 -3.140625 C 15.898438 -3.023438 15.472656 -3.195312 15.203125 -3.65625 L 14.125 -5.46875 L 7.828125 -4.265625 L 7.5 -2.1875 C 7.414062 -1.664062 7.085938 -1.347656 6.515625 -1.234375 L 1.09375 -0.203125 C 0.90625 -0.171875 0.734375 -0.207031 0.578125 -0.3125 C 0.429688 -0.414062 0.347656 -0.53125 0.328125 -0.65625 C 0.304688 -0.78125 0.300781 -0.875 0.3125 -0.9375 L 3.28125 -20.859375 C 3.332031 -21.546875 3.707031 -21.953125 4.40625 -22.078125 Z M 8.25 -10.25 L 11.5625 -10.875 L 8.84375 -16.015625 Z M 8.25 -10.25" transform="translate(58.686 298.337)"/></g></g></g><g fill="#FFF"><g><g><path d="M 20.734375 -4.15625 C 20.804688 -4.050781 20.851562 -3.929688 20.875 -3.796875 C 20.894531 -3.660156 20.851562 -3.515625 20.75 -3.359375 C 20.65625 -3.210938 20.519531 -3.128906 20.34375 -3.109375 L 14.28125 -2.1875 C 13.675781 -2.09375 13.210938 -2.289062 12.890625 -2.78125 L 9.5 -8.03125 L 8.296875 -7.84375 L 9.15625 -2.21875 C 9.1875 -2.007812 9.132812 -1.8125 9 -1.625 C 8.863281 -1.4375 8.695312 -1.328125 8.5 -1.296875 L 2.71875 -0.421875 C 2.5 -0.378906 2.296875 -0.425781 2.109375 -0.5625 C 1.929688 -0.707031 1.828125 -0.882812 1.796875 -1.09375 L -1.109375 -20.125 C -1.140625 -20.34375 -1.085938 -20.539062 -0.953125 -20.71875 C -0.828125 -20.90625 -0.65625 -21.019531 -0.4375 -21.0625 L 8.28125 -22.390625 C 11.101562 -22.816406 13.410156 -22.515625 15.203125 -21.484375 C 16.992188 -20.460938 18.066406 -18.769531 18.421875 -16.40625 C 18.785156 -14.039062 18.007812 -12.015625 16.09375 -10.328125 Z M 6.96875 -16.578125 L 7.453125 -13.4375 L 9.609375 -13.765625 C 10.035156 -13.828125 10.34375 -14.019531 10.53125 -14.34375 C 10.71875 -14.664062 10.773438 -15.039062 10.703125 -15.46875 C 10.640625 -15.90625 10.472656 -16.269531 10.203125 -16.5625 C 9.929688 -16.851562 9.570312 -16.96875 9.125 -16.90625 Z M 6.96875 -16.578125" transform="translate(81.934 293.923)"/></g></g></g><g fill="#FFF"><g><g><path d="M -0.75 -20.9375 L 16.609375 -22.96875 C 16.816406 -23 17.007812 -22.941406 17.1875 -22.796875 C 17.363281 -22.648438 17.460938 -22.46875 17.484375 -22.25 L 18.046875 -17.484375 C 18.078125 -17.265625 18.019531 -17.066406 17.875 -16.890625 C 17.738281 -16.722656 17.566406 -16.625 17.359375 -16.59375 L 12.4375 -16.015625 L 14.03125 -2.46875 C 14.050781 -2.25 13.992188 -2.050781 13.859375 -1.875 C 13.722656 -1.695312 13.546875 -1.59375 13.328125 -1.5625 L 7.40625 -0.875 C 7.1875 -0.84375 6.984375 -0.898438 6.796875 -1.046875 C 6.617188 -1.191406 6.519531 -1.375 6.5 -1.59375 L 4.90625 -15.140625 L 0 -14.5625 C -0.21875 -14.53125 -0.410156 -14.582031 -0.578125 -14.71875 C -0.753906 -14.863281 -0.859375 -15.046875 -0.890625 -15.265625 L -1.453125 -20.03125 C -1.472656 -20.25 -1.414062 -20.445312 -1.28125 -20.625 C -1.144531 -20.800781 -0.96875 -20.90625 -0.75 -20.9375 Z M -0.75 -20.9375" transform="translate(104.08 290.556)"/></g></g></g><g fill="#FFF"><g><g><path d="M 11.875 -14.234375 C 12.070312 -14.503906 12.15625 -14.816406 12.125 -15.171875 C 12.101562 -15.535156 11.972656 -15.851562 11.734375 -16.125 C 11.503906 -16.40625 11.191406 -16.53125 10.796875 -16.5 L 8.3125 -16.328125 L 8.5 -13.625 L 10.984375 -13.796875 C 11.378906 -13.828125 11.675781 -13.972656 11.875 -14.234375 Z M 8.828125 -8.65625 L 9.03125 -5.734375 L 11.78125 -5.921875 C 12.238281 -5.953125 12.570312 -6.128906 12.78125 -6.453125 C 12.988281 -6.773438 13.082031 -7.128906 13.0625 -7.515625 L 13.046875 -7.53125 C 13.023438 -7.914062 12.878906 -8.238281 12.609375 -8.5 C 12.347656 -8.757812 12.003906 -8.875 11.578125 -8.84375 Z M 12.90625 -0.875 L 2.75 -0.1875 C 2.53125 -0.164062 2.332031 -0.226562 2.15625 -0.375 C 1.988281 -0.53125 1.898438 -0.71875 1.890625 -0.9375 L 0.59375 -20.140625 C 0.570312 -20.359375 0.632812 -20.550781 0.78125 -20.71875 C 0.9375 -20.894531 1.125 -20.992188 1.34375 -21.015625 L 11.203125 -21.671875 C 14.023438 -21.867188 16.140625 -21.5 17.546875 -20.5625 C 18.953125 -19.625 19.726562 -18.128906 19.875 -16.078125 L 19.875 -15.984375 C 19.9375 -15.128906 19.738281 -14.347656 19.28125 -13.640625 C 18.820312 -12.941406 18.304688 -12.425781 17.734375 -12.09375 C 18.546875 -11.832031 19.253906 -11.316406 19.859375 -10.546875 C 20.460938 -9.785156 20.796875 -8.929688 20.859375 -7.984375 C 21.148438 -3.617188 18.5 -1.25 12.90625 -0.875 Z M 12.90625 -0.875" transform="translate(134.149 287.24)"/></g></g></g><g fill="#FFF"><g><g><path d="M 8.90625 -6.109375 L 18.078125 -6.40625 C 18.296875 -6.40625 18.484375 -6.328125 18.640625 -6.171875 C 18.804688 -6.023438 18.894531 -5.84375 18.90625 -5.625 L 19.03125 -1.421875 C 19.039062 -1.203125 18.96875 -1.007812 18.8125 -0.84375 C 18.664062 -0.675781 18.484375 -0.59375 18.265625 -0.59375 L 2.75 -0.09375 C 2.53125 -0.0820312 2.335938 -0.15625 2.171875 -0.3125 C 2.003906 -0.46875 1.914062 -0.65625 1.90625 -0.875 L 1.296875 -20.109375 C 1.285156 -20.328125 1.359375 -20.519531 1.515625 -20.6875 C 1.671875 -20.851562 1.859375 -20.941406 2.078125 -20.953125 L 17.34375 -21.4375 C 17.5625 -21.445312 17.753906 -21.375 17.921875 -21.21875 C 18.085938 -21.0625 18.175781 -20.875 18.1875 -20.65625 L 18.3125 -16.453125 C 18.320312 -16.234375 18.25 -16.039062 18.09375 -15.875 C 17.9375 -15.71875 17.75 -15.632812 17.53125 -15.625 L 8.609375 -15.34375 L 8.671875 -13.46875 L 16.9375 -13.734375 C 17.15625 -13.742188 17.347656 -13.671875 17.515625 -13.515625 C 17.679688 -13.367188 17.765625 -13.1875 17.765625 -12.96875 L 17.890625 -9.09375 C 17.898438 -8.875 17.828125 -8.679688 17.671875 -8.515625 C 17.515625 -8.347656 17.328125 -8.257812 17.109375 -8.25 L 8.84375 -7.984375 Z M 8.90625 -6.109375" transform="translate(156.913 285.727)"/></g></g></g><g fill="#FFF"><g><g><path d="M 2.8125 -20.875 L 11.390625 -20.84375 C 14.296875 -20.832031 16.679688 -20.101562 18.546875 -18.65625 C 20.421875 -17.207031 21.351562 -15.191406 21.34375 -12.609375 L 21.328125 -8.171875 C 21.328125 -5.460938 20.410156 -3.414062 18.578125 -2.03125 C 16.742188 -0.644531 14.335938 0.0390625 11.359375 0.03125 L 2.75 0 C 2.53125 0 2.335938 -0.078125 2.171875 -0.234375 C 2.015625 -0.398438 1.9375 -0.59375 1.9375 -0.8125 L 2 -20.0625 C 2 -20.28125 2.078125 -20.46875 2.234375 -20.625 C 2.398438 -20.789062 2.59375 -20.875 2.8125 -20.875 Z M 9.4375 -15.03125 L 9.40625 -5.78125 L 11.34375 -5.78125 C 12.019531 -5.78125 12.5625 -5.984375 12.96875 -6.390625 C 13.375 -6.796875 13.578125 -7.398438 13.578125 -8.203125 L 13.59375 -12.640625 C 13.601562 -14.234375 12.863281 -15.03125 11.375 -15.03125 Z M 9.4375 -15.03125" transform="translate(177.898 285.037)"/></g></g></g><g fill="#FFF"><g><g><path d="M 2.15625 -14.21875 C 2.269531 -16.226562 3.195312 -17.828125 4.9375 -19.015625 C 6.675781 -20.203125 8.910156 -20.722656 11.640625 -20.578125 C 14.378906 -20.429688 16.578125 -19.644531 18.234375 -18.21875 C 19.898438 -16.800781 20.695312 -15.375 20.625 -13.9375 C 20.613281 -13.757812 20.539062 -13.609375 20.40625 -13.484375 C 20.269531 -13.359375 20.125 -13.300781 19.96875 -13.3125 L 14.015625 -13.625 C 13.554688 -13.644531 13.144531 -13.832031 12.78125 -14.1875 C 12.425781 -14.550781 11.929688 -14.75 11.296875 -14.78125 C 10.335938 -14.832031 9.84375 -14.578125 9.8125 -14.015625 C 9.800781 -13.722656 10.023438 -13.460938 10.484375 -13.234375 C 10.941406 -13.015625 11.800781 -12.789062 13.0625 -12.5625 C 15.988281 -12.03125 18.054688 -11.226562 19.265625 -10.15625 C 20.472656 -9.082031 21.019531 -7.53125 20.90625 -5.5 C 20.800781 -3.46875 19.789062 -1.859375 17.875 -0.671875 C 15.957031 0.503906 13.492188 1.007812 10.484375 0.84375 C 7.484375 0.6875 5.164062 -0.0507812 3.53125 -1.375 C 1.894531 -2.695312 1.117188 -4.234375 1.203125 -5.984375 C 1.210938 -6.160156 1.285156 -6.3125 1.421875 -6.4375 C 1.566406 -6.5625 1.726562 -6.617188 1.90625 -6.609375 L 7.5625 -6.3125 C 7.976562 -6.28125 8.425781 -6.054688 8.90625 -5.640625 C 9.394531 -5.222656 10.085938 -4.992188 10.984375 -4.953125 C 12.472656 -4.867188 13.226562 -5.097656 13.25 -5.640625 C 13.269531 -6.003906 13.015625 -6.296875 12.484375 -6.515625 C 11.960938 -6.734375 10.960938 -6.976562 9.484375 -7.25 C 4.410156 -8.195312 1.96875 -10.519531 2.15625 -14.21875 Z M 2.15625 -14.21875" transform="translate(209.931 285.374)"/></g></g></g><g fill="#FFF"><g><g><path d="M 13.671875 1.203125 L 7.84375 0.6875 C 7.625 0.664062 7.441406 0.566406 7.296875 0.390625 C 7.148438 0.222656 7.085938 0.03125 7.109375 -0.1875 L 7.609375 -6.015625 L 2.109375 -19.828125 C 2.066406 -19.910156 2.050781 -20.019531 2.0625 -20.15625 C 2.082031 -20.300781 2.160156 -20.429688 2.296875 -20.546875 C 2.441406 -20.671875 2.601562 -20.726562 2.78125 -20.71875 L 8.359375 -20.21875 C 8.953125 -20.164062 9.347656 -19.878906 9.546875 -19.359375 L 11.984375 -13.125 L 15.484375 -18.84375 C 15.765625 -19.320312 16.203125 -19.535156 16.796875 -19.484375 L 22.375 -18.984375 C 22.5625 -18.972656 22.710938 -18.894531 22.828125 -18.75 C 22.941406 -18.613281 22.988281 -18.472656 22.96875 -18.328125 C 22.957031 -18.191406 22.929688 -18.082031 22.890625 -18 L 15.03125 -5.375 L 14.53125 0.453125 C 14.507812 0.671875 14.414062 0.851562 14.25 1 C 14.082031 1.15625 13.890625 1.222656 13.671875 1.203125 Z M 13.671875 1.203125" transform="translate(231.673 286.53)"/></g></g></g><g fill="#FFF"><g><g><path d="M 3.140625 -14.03125 C 3.390625 -16.039062 4.425781 -17.578125 6.25 -18.640625 C 8.070312 -19.703125 10.335938 -20.0625 13.046875 -19.71875 C 15.765625 -19.382812 17.898438 -18.453125 19.453125 -16.921875 C 21.015625 -15.390625 21.707031 -13.90625 21.53125 -12.46875 C 21.507812 -12.289062 21.425781 -12.144531 21.28125 -12.03125 C 21.144531 -11.914062 21 -11.867188 20.84375 -11.890625 L 14.921875 -12.609375 C 14.460938 -12.671875 14.066406 -12.890625 13.734375 -13.265625 C 13.398438 -13.648438 12.921875 -13.882812 12.296875 -13.96875 C 11.347656 -14.082031 10.84375 -13.859375 10.78125 -13.296875 C 10.738281 -13.003906 10.9375 -12.726562 11.375 -12.46875 C 11.8125 -12.21875 12.65625 -11.9375 13.90625 -11.625 C 16.789062 -10.882812 18.796875 -9.9375 19.921875 -8.78125 C 21.054688 -7.632812 21.5 -6.050781 21.25 -4.03125 C 21 -2.007812 19.875 -0.476562 17.875 0.5625 C 15.882812 1.613281 13.394531 1.953125 10.40625 1.578125 C 7.425781 1.210938 5.164062 0.316406 3.625 -1.109375 C 2.082031 -2.546875 1.414062 -4.140625 1.625 -5.890625 C 1.644531 -6.066406 1.722656 -6.210938 1.859375 -6.328125 C 2.003906 -6.441406 2.164062 -6.488281 2.34375 -6.46875 L 7.984375 -5.78125 C 8.390625 -5.726562 8.820312 -5.472656 9.28125 -5.015625 C 9.738281 -4.554688 10.410156 -4.269531 11.296875 -4.15625 C 12.773438 -3.976562 13.550781 -4.164062 13.625 -4.71875 C 13.664062 -5.082031 13.429688 -5.382812 12.921875 -5.625 C 12.410156 -5.875 11.429688 -6.191406 9.984375 -6.578125 C 4.972656 -7.878906 2.691406 -10.363281 3.140625 -14.03125 Z M 3.140625 -14.03125" transform="translate(253.451 288.452)"/></g></g></g><g fill="#FFF"><g><g><path d="M 4.953125 -20.359375 L 22.203125 -17.625 C 22.421875 -17.59375 22.59375 -17.484375 22.71875 -17.296875 C 22.84375 -17.109375 22.890625 -16.90625 22.859375 -16.6875 L 22.109375 -11.953125 C 22.066406 -11.734375 21.957031 -11.554688 21.78125 -11.421875 C 21.601562 -11.296875 21.40625 -11.25 21.1875 -11.28125 L 16.296875 -12.0625 L 14.171875 1.421875 C 14.140625 1.628906 14.03125 1.800781 13.84375 1.9375 C 13.664062 2.070312 13.46875 2.125 13.25 2.09375 L 7.359375 1.15625 C 7.140625 1.125 6.960938 1.015625 6.828125 0.828125 C 6.703125 0.640625 6.65625 0.441406 6.6875 0.234375 L 8.8125 -13.25 L 3.9375 -14.015625 C 3.71875 -14.046875 3.539062 -14.148438 3.40625 -14.328125 C 3.269531 -14.515625 3.222656 -14.71875 3.265625 -14.9375 L 4.015625 -19.671875 C 4.046875 -19.890625 4.15625 -20.066406 4.34375 -20.203125 C 4.53125 -20.335938 4.734375 -20.390625 4.953125 -20.359375 Z M 4.953125 -20.359375" transform="translate(275.064 291.124)"/></g></g></g><g fill="#FFF"><g><g><path d="M 10.015625 -3.984375 L 19.046875 -2.25 C 19.253906 -2.207031 19.421875 -2.09375 19.546875 -1.90625 C 19.679688 -1.726562 19.726562 -1.53125 19.6875 -1.3125 L 18.890625 2.8125 C 18.847656 3.03125 18.734375 3.203125 18.546875 3.328125 C 18.359375 3.453125 18.160156 3.492188 17.953125 3.453125 L 2.703125 0.515625 C 2.484375 0.472656 2.3125 0.359375 2.1875 0.171875 C 2.0625 -0.015625 2.019531 -0.21875 2.0625 -0.4375 L 5.703125 -19.34375 C 5.742188 -19.550781 5.859375 -19.71875 6.046875 -19.84375 C 6.234375 -19.976562 6.4375 -20.023438 6.65625 -19.984375 L 21.65625 -17.09375 C 21.875 -17.050781 22.046875 -16.929688 22.171875 -16.734375 C 22.296875 -16.546875 22.335938 -16.347656 22.296875 -16.140625 L 21.5 -12.015625 C 21.457031 -11.796875 21.34375 -11.625 21.15625 -11.5 C 20.96875 -11.382812 20.765625 -11.347656 20.546875 -11.390625 L 11.765625 -13.078125 L 11.421875 -11.21875 L 19.5625 -9.65625 C 19.78125 -9.613281 19.953125 -9.5 20.078125 -9.3125 C 20.203125 -9.125 20.242188 -8.925781 20.203125 -8.71875 L 19.46875 -4.90625 C 19.425781 -4.695312 19.3125 -4.523438 19.125 -4.390625 C 18.9375 -4.265625 18.734375 -4.222656 18.515625 -4.265625 L 10.375 -5.828125 Z M 10.015625 -3.984375" transform="translate(295.961 294.434)"/></g></g></g><g fill="#FFF"><g><g><path d="M 22.890625 -16.109375 L 27.484375 -15.046875 C 27.703125 -14.992188 27.867188 -14.867188 27.984375 -14.671875 C 28.097656 -14.484375 28.128906 -14.285156 28.078125 -14.078125 L 23.734375 4.671875 C 23.679688 4.890625 23.5625 5.054688 23.375 5.171875 C 23.1875 5.296875 22.984375 5.332031 22.765625 5.28125 L 17.515625 4.0625 C 17.304688 4.019531 17.140625 3.898438 17.015625 3.703125 C 16.890625 3.515625 16.851562 3.3125 16.90625 3.09375 L 18.75 -4.84375 L 16.109375 -2.15625 C 15.703125 -1.757812 15.289062 -1.609375 14.875 -1.703125 L 12.84375 -2.171875 C 12.4375 -2.265625 12.128906 -2.582031 11.921875 -3.125 L 10.734375 -6.71875 L 8.890625 1.21875 C 8.835938 1.4375 8.71875 1.609375 8.53125 1.734375 C 8.34375 1.859375 8.140625 1.894531 7.921875 1.84375 L 2.671875 0.625 C 2.460938 0.570312 2.296875 0.445312 2.171875 0.25 C 2.054688 0.0625 2.023438 -0.140625 2.078125 -0.359375 L 6.421875 -19.109375 C 6.472656 -19.316406 6.59375 -19.476562 6.78125 -19.59375 C 6.976562 -19.71875 7.179688 -19.753906 7.390625 -19.703125 L 11.984375 -18.640625 C 12.515625 -18.515625 12.863281 -18.160156 13.03125 -17.578125 L 15.640625 -9.625 L 21.453125 -15.609375 C 21.867188 -16.066406 22.347656 -16.234375 22.890625 -16.109375 Z M 22.890625 -16.109375" transform="translate(316.563 298.357)"/></g></g></g><g fill="#FFF"><g><g><path d="M 5.125 -13.4375 C 5.65625 -15.382812 6.894531 -16.75 8.84375 -17.53125 C 10.800781 -18.320312 13.097656 -18.359375 15.734375 -17.640625 C 18.378906 -16.921875 20.363281 -15.6875 21.6875 -13.9375 C 23.019531 -12.195312 23.492188 -10.628906 23.109375 -9.234375 C 23.054688 -9.066406 22.953125 -8.9375 22.796875 -8.84375 C 22.640625 -8.757812 22.488281 -8.738281 22.34375 -8.78125 L 16.578125 -10.34375 C 16.140625 -10.46875 15.78125 -10.738281 15.5 -11.15625 C 15.226562 -11.582031 14.785156 -11.878906 14.171875 -12.046875 C 13.253906 -12.296875 12.722656 -12.148438 12.578125 -11.609375 C 12.492188 -11.328125 12.648438 -11.03125 13.046875 -10.71875 C 13.441406 -10.40625 14.234375 -10 15.421875 -9.5 C 18.179688 -8.363281 20.035156 -7.144531 20.984375 -5.84375 C 21.929688 -4.539062 22.132812 -2.90625 21.59375 -0.9375 C 21.0625 1.019531 19.734375 2.367188 17.609375 3.109375 C 15.484375 3.859375 12.96875 3.835938 10.0625 3.046875 C 7.164062 2.253906 5.054688 1.039062 3.734375 -0.59375 C 2.410156 -2.226562 1.984375 -3.894531 2.453125 -5.59375 C 2.492188 -5.769531 2.59375 -5.898438 2.75 -5.984375 C 2.914062 -6.078125 3.085938 -6.101562 3.265625 -6.0625 L 8.734375 -4.5625 C 9.128906 -4.457031 9.519531 -4.144531 9.90625 -3.625 C 10.289062 -3.113281 10.914062 -2.742188 11.78125 -2.515625 C 13.21875 -2.117188 14.007812 -2.1875 14.15625 -2.71875 C 14.25 -3.0625 14.0625 -3.394531 13.59375 -3.71875 C 13.125 -4.039062 12.195312 -4.492188 10.8125 -5.078125 C 6.050781 -7.078125 4.15625 -9.863281 5.125 -13.4375 Z M 5.125 -13.4375" transform="translate(342.23 304.37)"/></g></g></g></svg>